HIERARCHY
ROOT root
{
	OFFSET 0.000000 0.000000 0.000000
	CHANNELS 6 Xposition Yposition Zposition Zrotation Yrotation Xrotation
	JOINT lhip
	{
		OFFSET 0.058581 -0.082280 -0.017664
		CHANNELS 3 Zrotation Yrotation Xrotation
		JOINT lknee
		{
			OFFSET 0.043451 -0.386469 0.008037
			CHANNELS 3 Zrotation Yrotation Xrotation
			JOINT lankle
			{
				OFFSET -0.014790 -0.426874 -0.037428
				CHANNELS 3 Zrotation Yrotation Xrotation
				JOINT ltoe
				{
					OFFSET 0.041054 -0.060286 0.122042
					CHANNELS 3 Zrotation Yrotation Xrotation
					End Site
					{
						OFFSET 0.000000 0.000000 0.000000
					}
				}
			}
		}
	}
	JOINT rhip
	{
		OFFSET -0.060310 -0.090513 -0.013543
		CHANNELS 3 Zrotation Yrotation Xrotation
		JOINT rknee
		{
			OFFSET -0.043257 -0.383688 -0.004843
			CHANNELS 3 Zrotation Yrotation Xrotation
			JOINT rankle
			{
				OFFSET 0.019056 -0.420046 -0.034562
				CHANNELS 3 Zrotation Yrotation Xrotation
				JOINT rtoe
				{
					OFFSET -0.034840 -0.062106 0.130323
					CHANNELS 3 Zrotation Yrotation Xrotation
					End Site
					{
						OFFSET 0.000000 0.000000 0.000000
					}
				}
			}
		}
	}
	JOINT lowerback
	{
		OFFSET 0.004439 0.124404 -0.038385
		CHANNELS 3 Zrotation Yrotation Xrotation
		JOINT upperback
		{
			OFFSET 0.004488 0.137956 0.026820
			CHANNELS 3 Zrotation Yrotation Xrotation
			JOINT chest
			{
				OFFSET -0.002265 0.056032 0.002855
				CHANNELS 3 Zrotation Yrotation Xrotation
				JOINT lowerneck
				{
					OFFSET -0.013390 0.211636 -0.033468
					CHANNELS 3 Zrotation Yrotation Xrotation
					JOINT upperneck
					{
						OFFSET 0.010113 0.088937 0.050410
						CHANNELS 3 Zrotation Yrotation Xrotation
						End Site
						{
							OFFSET 0.000000 0.000000 0.000000
						}
					}
				}
				JOINT lclavicle
				{
					OFFSET 0.071702 0.114000 -0.018898
					CHANNELS 3 Zrotation Yrotation Xrotation
					JOINT lshoulder
					{
						OFFSET 0.122921 0.045205 -0.019046
						CHANNELS 3 Zrotation Yrotation Xrotation
						JOINT lelbow
						{
							OFFSET 0.255332 -0.015649 -0.022946
							CHANNELS 3 Zrotation Yrotation Xrotation
							JOINT lwrist
							{
								OFFSET 0.265709 0.012698 -0.007375
								CHANNELS 3 Zrotation Yrotation Xrotation
								End Site
								{
									OFFSET 0.000000 0.000000 0.000000
								}
							}
						}
					}
				}
				JOINT rclavicle
				{
					OFFSET -0.082954 0.112472 -0.023707
					CHANNELS 3 Zrotation Yrotation Xrotation
					JOINT rshoulder
					{
						OFFSET -0.113228 0.046853 -0.008472
						CHANNELS 3 Zrotation Yrotation Xrotation
						JOINT relbow
						{
							OFFSET -0.260127 -0.014369 -0.031269
							CHANNELS 3 Zrotation Yrotation Xrotation
							JOINT rwrist
							{
								OFFSET -0.269108 0.006794 -0.006027
								CHANNELS 3 Zrotation Yrotation Xrotation
								End Site
								{
									OFFSET 0.000000 0.000000 0.000000
								}
							}
						}
					}
				}
			}
		}
	}
}
MOTION
Frames: 7
Frame Time: 0.033333
-0.396613 0.770558 0.901437 127.927907 -6.766569 89.558264 23.134156 6.800405 0.687979 -3.682228 -2.083222 22.183042 -13.693623 5.060682 -9.689130 0.000000 -0.000000 0.000000 -28.719739 -14.836466 -34.017392 -5.423655 -11.971478 53.625265 6.633962 -4.850397 -8.097059 0.000000 -0.000000 0.000000 8.137260 -6.942330 20.616942 -1.295977 6.192157 -7.810267 1.738222 0.111615 -5.282582 7.051996 -46.872876 0.324648 4.742915 -20.444310 7.357280 -19.419699 -2.425306 0.506440 -37.858083 -22.735830 -7.219005 138.819415 -34.180782 -121.817775 49.900680 -13.207502 -37.943276 -8.058834 37.483913 -11.536005 8.936952 66.976436 -16.454900 -118.809701 78.565663 -103.627037 -17.167499 26.185294 17.237521 
-0.380866 0.756640 0.900505 126.651385 -7.417050 89.921222 24.356823 7.579314 -1.997530 -4.203174 -2.173540 27.195498 -16.660627 3.883395 -2.903146 0.000000 -0.000000 0.000000 -29.393630 -13.819060 -34.773442 -3.048734 -7.398757 52.601115 8.172700 0.173559 -7.321955 0.000000 -0.000000 0.000000 8.243370 -7.234651 20.698952 -1.541582 6.413980 -7.137694 1.031548 0.710997 -5.133440 8.488239 -46.690011 -0.803583 4.777299 -21.939357 8.085495 -19.603770 -0.395554 0.714290 -40.474591 -20.711498 -6.351766 138.966981 -33.631927 -120.984682 48.848728 -11.716356 -39.598803 -7.835382 37.789623 -11.404974 10.230269 68.874248 -15.840938 -116.419859 80.688526 -100.932022 -15.475693 25.813936 16.088097 
-0.367040 0.740627 0.898554 125.271317 -8.448485 91.109392 24.156436 7.582859 -8.018202 -3.709208 -1.390825 35.884137 -13.867961 5.830906 2.778235 0.000000 -0.000000 0.000000 -29.591432 -12.632699 -33.734266 -1.558579 -2.529361 45.040177 7.687065 1.724259 -11.161733 0.000000 -0.000000 0.000000 8.581177 -6.946034 20.751440 -2.500001 6.609990 -7.088315 0.699986 0.818860 -5.359443 7.810664 -48.231953 -0.283817 6.025454 -20.148056 6.702153 -20.835236 0.887837 1.076440 -41.315758 -19.976917 -6.586786 139.636705 -33.525746 -121.335433 49.719941 -10.567536 -39.860567 -8.685501 38.381575 -9.952668 6.005943 69.161330 -20.172254 -115.905149 81.157761 -100.775883 -16.243632 25.680370 15.995882 
-0.354172 0.727592 0.891375 124.106231 -8.853598 91.400016 24.395787 6.588437 -11.425651 -5.425684 -4.233310 41.137850 -12.592882 2.853122 -1.998967 0.000000 -0.000000 0.000000 -29.439732 -12.544780 -35.403093 -1.027805 -2.769680 47.755527 7.951688 2.883598 -14.524446 0.000000 -0.000000 0.000000 8.535868 -6.470202 21.598522 -2.790862 6.830998 -6.930228 0.620047 1.148088 -6.331704 7.775599 -48.406321 1.265698 6.777122 -19.509430 4.933725 -21.488691 -0.497482 1.471686 -41.224485 -19.462326 -6.251154 140.660510 -32.922631 -121.924947 49.120294 -11.526805 -38.822827 -8.648285 39.565712 -8.745048 2.114251 66.011534 -23.744724 -122.964884 80.708408 -108.193530 -16.565767 25.327436 14.102930 
-0.347212 0.720958 0.885295 121.769861 -9.187438 91.345382 23.975752 6.267560 -11.258785 -8.342280 -9.087798 38.635519 -14.811344 -4.097528 -8.663301 0.000000 -0.000000 0.000000 -28.123075 -13.632714 -38.805568 -1.664983 -2.659261 51.198670 8.386727 4.011301 -13.871813 0.000000 -0.000000 0.000000 7.696594 -5.868506 23.100763 -2.606984 7.183910 -6.538371 0.982227 1.420173 -5.557368 9.706606 -47.016674 -0.643640 7.217393 -21.532310 5.448478 -21.294552 -1.072568 0.041630 -42.488385 -19.895052 -4.392704 142.133017 -32.254671 -122.640404 49.626158 -13.080532 -37.449912 -8.434349 38.783257 -9.965494 2.098018 64.777840 -23.343403 -127.779640 80.168556 -113.297668 -16.978533 25.582043 14.082532 
-0.336176 0.718463 0.880564 121.872247 -9.310037 90.319088 23.778552 4.979759 -8.768761 -9.148883 -12.521371 29.233711 -17.785224 -5.763660 -11.504882 0.000000 -0.000000 0.000000 -28.215153 -14.072769 -38.454464 -1.591017 -3.113780 53.497488 8.877905 3.988770 -15.178312 0.000000 -0.000000 0.000000 7.203196 -5.826811 23.484324 -1.981383 6.227911 -5.537793 1.093108 1.239481 -5.744737 10.785201 -45.161281 -0.526726 7.387685 -22.544821 5.065096 -21.124461 -1.962727 0.607525 -41.685834 -20.172771 -4.228630 143.405023 -32.619099 -123.379168 49.642760 -14.015487 -36.695073 -6.440007 37.919867 -9.065301 7.596530 63.627432 -18.856301 -135.049954 78.955815 -119.346870 -17.358713 25.962250 14.193849 
-0.329261 0.717419 0.876941 121.847104 -9.240903 90.092939 23.471875 3.852174 -8.008755 -7.156931 -10.674162 26.646601 -16.580338 -3.512055 -13.453572 0.000000 -0.000000 0.000000 -28.914072 -13.933677 -39.070475 -1.441713 -5.230475 55.938732 9.611958 3.476349 -14.796075 0.000000 -0.000000 0.000000 7.162677 -5.726526 23.023432 -1.479797 5.891527 -4.909028 1.025984 1.137838 -6.014014 10.557985 -44.844663 -0.108149 7.688654 -23.189710 4.379737 -21.450056 -3.068825 0.554395 -40.233778 -21.379673 -3.905520 143.618785 -33.645816 -123.756705 49.528412 -14.774294 -35.739630 -3.647050 37.411507 -7.330905 10.311675 61.888851 -15.736404 -137.837139 78.167863 -121.391230 -18.777816 26.811530 14.589045 
